<?xml version="1.0" encoding="UTF-8"?>
<svg xmlns="http://www.w3.org/2000/svg" version="1.1" viewBox="0 0 473.4 222.12">
  <defs>
    <style>
      .cls-1 {
        fill: #fff;
      }

      .cls-2 {
        fill: #f0c416;
      }
    </style>
  </defs>
  <!-- Generator: Adobe Illustrator 28.7.1, SVG Export Plug-In . SVG Version: 1.2.0 Build 142)  -->
  <g>
    <g id="Capa_1">
      <polygon class="cls-1" points="274.79 121.92 274.79 139.45 290.07 139.45 290.07 152.29 261.95 152.29 261.95 148.93 261.95 139.45 261.95 121.92 261.95 120.8 261.95 109.08 308.21 109.08 308.21 91.76 242.38 91.76 242.38 170.22 308.21 170.22 308.21 121.92 274.79 121.92"/>
      <polygon class="cls-1" points="430.39 121.92 430.39 139.45 445.68 139.45 445.68 152.29 417.55 152.29 417.55 148.93 417.55 139.45 417.55 121.92 417.55 120.8 417.55 109.08 463.82 109.08 463.82 91.76 397.98 91.76 397.98 170.22 463.82 170.22 463.82 121.92 430.39 121.92"/>
      <path class="cls-2" d="M386.68,170.22h-67.16v-50.01h43.64v-7.21h-43.64v-21.88h67.16v50.35h-43.02v7.21h43.02v21.55ZM324.45,165.3h57.31v-11.69h-43.02v-17.07h43.02v-40.49h-57.31v12.03h43.64v17.07h-43.64v40.16Z"/>
      <g>
        <polygon class="cls-2" points="172.25 200.96 172.25 185.19 48.09 185.19 48.09 174.06 120.15 133.92 120.15 67 108.58 52.85 107.7 52.85 18.73 52.85 18.73 92.22 48.09 92.22 48.09 78.65 95.24 78.65 95.24 117.69 18.73 161.39 18.73 211.88 463.82 211.88 463.82 185.19 191.83 185.19 172.25 200.96"/>
        <path class="cls-1" d="M187.27,67.81L92.72,12.93l44.93,54.88v72.68l-62.43,33.58h65.17l31.58-17.67,6.01,4v28.58l49.49-40.59v-13.01l-40.2-67.56ZM184.57,114.6h-12.68l-9.26-12.51,2.03-3.31,21.99,12.48-2.09,3.34Z"/>
      </g>
      <polygon class="cls-2" points="463.82 78.8 219.82 78.8 202.7 52.85 463.82 52.85 463.82 78.8"/>
    </g>
  </g>
</svg>