<?xml version="1.0" encoding="UTF-8"?>
<svg xmlns="http://www.w3.org/2000/svg" version="1.1" viewBox="0 0 200 200">
  <defs>
    <style>
      .cls-1 {
        fill: #fff;
      }

      .cls-2 {
        fill: #f0c416;
      }
    </style>
  </defs>
  <!-- Generator: Adobe Illustrator 28.7.1, SVG Export Plug-In . SVG Version: 1.2.0 Build 142)  -->
  <g>
    <g id="Capa_1">
      <g>
        <polygon class="cls-1" points="53.33 161.41 53.33 171.17 61.84 171.17 61.84 178.32 46.18 178.32 46.18 176.45 46.18 171.17 46.18 161.41 46.18 160.79 46.18 154.27 71.94 154.27 71.94 144.62 35.29 144.62 35.29 188.31 71.94 188.31 71.94 161.41 53.33 161.41"/>
        <polygon class="cls-1" points="139.96 161.41 139.96 171.17 148.47 171.17 148.47 178.32 132.81 178.32 132.81 176.45 132.81 171.17 132.81 161.41 132.81 160.79 132.81 154.27 158.57 154.27 158.57 144.62 121.92 144.62 121.92 188.31 158.57 188.31 158.57 161.41 139.96 161.41"/>
        <path class="cls-2" d="M115.63,188.46h-37.39v-27.85h24.3v-4.01h-24.3v-12.18h37.39v28.03h-23.95v4.01h23.95v12ZM80.98,185.71h31.91v-6.51h-23.95v-9.5h23.95v-22.55h-31.91v6.7h24.3v9.5h-24.3v22.36Z"/>
        <polygon class="cls-2" points="129.99 127.15 129.99 117.43 53.4 117.43 53.4 110.56 97.85 85.8 97.85 44.51 90.71 35.78 90.17 35.78 35.29 35.78 35.29 60.07 53.4 60.07 53.4 51.7 82.49 51.7 82.49 75.78 35.29 102.74 35.29 133.89 148.2 133.89 164.06 117.43 142.07 117.43 129.99 127.15"/>
        <path class="cls-1" d="M139.26,45.01L80.93,11.15l27.72,33.86v44.83l-38.51,20.71h40.2l19.48-10.9,3.7,2.47v17.63l30.53-25.04v-8.03l-24.8-41.68ZM137.59,73.88h-7.82l-5.71-7.72,1.25-2.04,13.57,7.7-1.29,2.06Z"/>
      </g>
    </g>
  </g>
</svg>